<svg xmlns="http://www.w3.org/2000/svg" viewBox="0 0 591 564" width="591" height="564" role="img" aria-label="Arsenal Radar" font-family="ui-sans-serif,-apple-system,Segoe UI,Helvetica,Arial,sans-serif"><text x="295.5" y="25" text-anchor="middle" font-size="15" font-weight="700" fill="#C81E1E">Arsenal Radar</text><g transform="translate(299.6,289.0)"><polygon points="0.0,-212.0 183.6,-106.0 183.6,106.0 0.0,212.0 -183.6,106.0 -183.6,-106.0" fill="none" stroke="#3a0808" stroke-width="1" opacity="0.85"/><polygon points="0.0,-159.0 137.7,-79.5 137.7,79.5 0.0,159.0 -137.7,79.5 -137.7,-79.5" fill="none" stroke="#3a0808" stroke-width="1" opacity="0.72"/><polygon points="0.0,-106.0 91.8,-53.0 91.8,53.0 0.0,106.0 -91.8,53.0 -91.8,-53.0" fill="none" stroke="#3a0808" stroke-width="1" opacity="0.60"/><polygon points="0.0,-53.0 45.9,-26.5 45.9,26.5 0.0,53.0 -45.9,26.5 -45.9,-26.5" fill="none" stroke="#3a0808" stroke-width="1" opacity="0.47"/><line x1="0" y1="0" x2="0.0" y2="-212.0" stroke="#2a0505" stroke-width="1"/><line x1="0" y1="0" x2="183.6" y2="-106.0" stroke="#2a0505" stroke-width="1"/><line x1="0" y1="0" x2="183.6" y2="106.0" stroke="#2a0505" stroke-width="1"/><line x1="0" y1="0" x2="0.0" y2="212.0" stroke="#2a0505" stroke-width="1"/><line x1="0" y1="0" x2="-183.6" y2="106.0" stroke="#2a0505" stroke-width="1"/><line x1="0" y1="0" x2="-183.6" y2="-106.0" stroke="#2a0505" stroke-width="1"/><g><animateTransform attributeName="transform" type="scale" values="0.04;1" dur="1.1s" calcMode="spline" keyTimes="0;1" keySplines="0.22 1 0.36 1" fill="freeze"/><polygon points="0.0,-173.8 128.5,-74.2 119.3,68.9 0.0,159.0 -156.1,90.1 -143.2,-82.7" fill="#C81E1E" fill-opacity="0.22" stroke="#8FE04A" stroke-width="2.5" stroke-linejoin="round"/><circle cx="0.0" cy="-173.8" r="3.6" fill="#8FE04A" stroke="#8FE04A" stroke-width="1.2"/><circle cx="128.5" cy="-74.2" r="3.6" fill="#8FE04A" stroke="#8FE04A" stroke-width="1.2"/><circle cx="119.3" cy="68.9" r="3.6" fill="#8FE04A" stroke="#8FE04A" stroke-width="1.2"/><circle cx="0.0" cy="159.0" r="3.6" fill="#8FE04A" stroke="#8FE04A" stroke-width="1.2"/><circle cx="-156.1" cy="90.1" r="3.6" fill="#8FE04A" stroke="#8FE04A" stroke-width="1.2"/><circle cx="-143.2" cy="-82.7" r="3.6" fill="#8FE04A" stroke="#8FE04A" stroke-width="1.2"/></g><text x="0.0" y="-237.0" text-anchor="middle" font-size="13" font-weight="600" fill="#c9d1d9">Nmap</text><text x="0.0" y="-222.0" text-anchor="middle" font-size="11" fill="#8b949e">82</text><text x="200.9" y="-121.0" text-anchor="start" font-size="13" font-weight="600" fill="#c9d1d9">Burp Suite</text><text x="200.9" y="-106.0" text-anchor="start" font-size="11" fill="#8b949e">70</text><text x="200.9" y="130.0" text-anchor="start" font-size="13" font-weight="600" fill="#c9d1d9">Metasploit</text><text x="200.9" y="145.0" text-anchor="start" font-size="11" fill="#8b949e">65</text><text x="0.0" y="246.0" text-anchor="middle" font-size="13" font-weight="600" fill="#c9d1d9">Wireshark</text><text x="0.0" y="261.0" text-anchor="middle" font-size="11" fill="#8b949e">75</text><text x="-200.9" y="130.0" text-anchor="end" font-size="13" font-weight="600" fill="#c9d1d9">Kali Linux</text><text x="-200.9" y="145.0" text-anchor="end" font-size="11" fill="#8b949e">85</text><text x="-200.9" y="-121.0" text-anchor="end" font-size="13" font-weight="600" fill="#c9d1d9">Aircrack-ng</text><text x="-200.9" y="-106.0" text-anchor="end" font-size="11" fill="#8b949e">78</text></g></svg>